# xmcd CD database file
#
# Track frame offsets:
#	150
#	18809
#	29619
#	46980
#	63277
#	78968
#	100769
#	114866
#	130236
#	147872
#	166361
#	185089
#	202560
#
# Disc length: 2946 seconds
#
# Revision: 4
# Processed by: cddbd v1.4PL0 Copyright (c) Steve Scherf et al.
# Submitted via: CDex 1.40Release
#
DISCID=9f0b800d
DTITLE=The Bushwackers Band - Dance Album
DYEAR=1900
DGENRE=
TTITLE0=Waves of bondi
TTITLE1=Flying pieman
TTITLE2=Road to Gundagai
TTITLE3=Heel and toe polka
TTITLE4=The pride of erin
TTITLE5=The drongo
TTITLE6=The madman's woodyard
TTITLE7=The barn dance
TTITLE8=Stockyards
TTITLE9=Queensland backstep
TTITLE10=The kangaroo hop
TTITLE11=Strip the willow
TTITLE12=Waltz country dance
EXTD=
EXTT0=
EXTT1=
EXTT2=
EXTT3=
EXTT4=
EXTT5=
EXTT6=
EXTT7=
EXTT8=
EXTT9=
EXTT10=
EXTT11=
EXTT12=
PLAYORDER=
